# xmcd
#
# Track frame offsets: 
#        150
#        12778
#        24984
#        39912
#        56732
#        69610
#        82419
#        95992
#        109078
#        120831
#        132776
#        147606
#        164643
#        176022
#        198298
#        211976
#        225026
#        237215
#        249414
#        276430
#        302040
#        322881
#
# Disc length: 4549 seconds
#
# Revision: 0
# Processed by: cddbd v1.5.1PL2 Copyright (c) Steve Scherf et al.
# Submitted via: ExactAudioCopy v0.95b4
#
DISCID=3211c316
DTITLE=Various Artist - Chess Pieces: The Very Best Of Chess [CD2]
DYEAR=2005
DGENRE=Blues
TTITLE0=Etta James - Something's Got A Hold On Me
TTITLE1=Chuck Berry - No Particular Place To Go
TTITLE2=Jackie Ross - Selfish One
TTITLE3=Mitty Collier - I Had A Talk With My Man Last Night
TTITLE4=Tommy Tucker - High Heel Sneakers
TTITLE5=Sugar Pie DeSanto - Soulful Dress
TTITLE6=Bobby McClure and Fontella Bass - Don't Mess Up A Good Thing
TTITLE7=Fontella Bass - Rescue Me
TTITLE8=Tony Clarke - The Entertainer
TTITLE9=Little Milton - We're Gonna Make It
TTITLE10=Billy Stewart - Sitting In The Park
TTITLE11=Ramsey Lewis Trio - Wade In The Water
TTITLE12=Bobby Moore and The Rhythm Aces - Searching For My Love
TTITLE13=Billy Stewart - Summertime
TTITLE14=Koko Taylor - Wang Dang Doodle
TTITLE15=Laura Lee - Dirty Man
TTITLE16=Maurice and Mac - You Left The Water Running
TTITLE17=Pigmeat Markham - Here Comes The Judge
TTITLE18=Marlena Shaw - Woman Of The Ghetto
TTITLE19=Rotary Connection featuring Minnie Riperton - I Am The Black 
TTITLE19=Gold Of The Sun
TTITLE20=The Dells - Give Your Baby A Standing Ovation
TTITLE21=Solomon Burke - Let Me Wrap My Arms Around You
EXTD=
EXTT0=
EXTT1=
EXTT2=
EXTT3=
EXTT4=
EXTT5=
EXTT6=
EXTT7=
EXTT8=
EXTT9=
EXTT10=
EXTT11=
EXTT12=
EXTT13=
EXTT14=
EXTT15=
EXTT16=
EXTT17=
EXTT18=
EXTT19=
EXTT20=
EXTT21=
PLAYORDER=
